<mxfile host="Electron" agent="Mozilla/5.0 (Windows NT 10.0; Win64; x64) AppleWebKit/537.36 (KHTML, like Gecko) draw.io/25.0.2 Chrome/128.0.6613.186 Electron/32.2.5 Safari/537.36" version="25.0.2">
  <diagram name="Страница — 1" id="UuLVvzYbURRZjBlXZ5gN">
    <mxGraphModel dx="1434" dy="854" grid="1" gridSize="10" guides="1" tooltips="1" connect="1" arrows="1" fold="1" page="1" pageScale="1" pageWidth="827" pageHeight="1169" math="0" shadow="0">
      <root>
        <mxCell id="0" />
        <mxCell id="1" parent="0" />
        <mxCell id="61pDMChajNqByRGVgFLa-1" value="Добавить нового тренера" style="ellipse;whiteSpace=wrap;html=1;" vertex="1" parent="1">
          <mxGeometry x="740" y="642" width="120" height="50" as="geometry" />
        </mxCell>
        <mxCell id="61pDMChajNqByRGVgFLa-62" style="rounded=0;orthogonalLoop=1;jettySize=auto;html=1;exitX=0.5;exitY=0.5;exitDx=0;exitDy=0;exitPerimeter=0;endArrow=none;endFill=0;" edge="1" parent="1" source="61pDMChajNqByRGVgFLa-2" target="61pDMChajNqByRGVgFLa-3">
          <mxGeometry relative="1" as="geometry" />
        </mxCell>
        <mxCell id="61pDMChajNqByRGVgFLa-2" value="Администратор" style="shape=umlActor;verticalLabelPosition=bottom;verticalAlign=top;html=1;outlineConnect=0;" vertex="1" parent="1">
          <mxGeometry x="940" y="472.5" width="30" height="60" as="geometry" />
        </mxCell>
        <mxCell id="61pDMChajNqByRGVgFLa-64" style="rounded=0;orthogonalLoop=1;jettySize=auto;html=1;exitX=0;exitY=0.5;exitDx=0;exitDy=0;entryX=1;entryY=0.5;entryDx=0;entryDy=0;dashed=1;" edge="1" parent="1" source="61pDMChajNqByRGVgFLa-3" target="61pDMChajNqByRGVgFLa-26">
          <mxGeometry relative="1" as="geometry" />
        </mxCell>
        <mxCell id="61pDMChajNqByRGVgFLa-3" value="Записать тренера на курс обучения" style="ellipse;whiteSpace=wrap;html=1;" vertex="1" parent="1">
          <mxGeometry x="720" y="442.5" width="140" height="80" as="geometry" />
        </mxCell>
        <mxCell id="61pDMChajNqByRGVgFLa-65" style="rounded=0;orthogonalLoop=1;jettySize=auto;html=1;exitX=0;exitY=0.5;exitDx=0;exitDy=0;entryX=1;entryY=0.5;entryDx=0;entryDy=0;startArrow=none;startFill=0;dashed=1;" edge="1" parent="1" source="61pDMChajNqByRGVgFLa-4">
          <mxGeometry relative="1" as="geometry">
            <mxPoint x="630" y="557.5" as="targetPoint" />
          </mxGeometry>
        </mxCell>
        <mxCell id="61pDMChajNqByRGVgFLa-4" value="Предоставить скидку постоянному клиенту на тренировку" style="ellipse;whiteSpace=wrap;html=1;" vertex="1" parent="1">
          <mxGeometry x="720" y="532.5" width="140" height="80" as="geometry" />
        </mxCell>
        <mxCell id="61pDMChajNqByRGVgFLa-59" style="rounded=0;orthogonalLoop=1;jettySize=auto;html=1;exitX=0.5;exitY=0.5;exitDx=0;exitDy=0;exitPerimeter=0;entryX=0;entryY=0.5;entryDx=0;entryDy=0;endArrow=none;endFill=0;" edge="1" parent="1" source="61pDMChajNqByRGVgFLa-5" target="61pDMChajNqByRGVgFLa-24">
          <mxGeometry relative="1" as="geometry" />
        </mxCell>
        <mxCell id="61pDMChajNqByRGVgFLa-60" style="rounded=0;orthogonalLoop=1;jettySize=auto;html=1;exitX=0.5;exitY=0.5;exitDx=0;exitDy=0;exitPerimeter=0;entryX=0;entryY=0.5;entryDx=0;entryDy=0;endArrow=none;endFill=0;" edge="1" parent="1" source="61pDMChajNqByRGVgFLa-5" target="61pDMChajNqByRGVgFLa-25">
          <mxGeometry relative="1" as="geometry" />
        </mxCell>
        <mxCell id="61pDMChajNqByRGVgFLa-5" value="Клиент" style="shape=umlActor;verticalLabelPosition=bottom;verticalAlign=top;html=1;outlineConnect=0;" vertex="1" parent="1">
          <mxGeometry x="50" y="500" width="30" height="60" as="geometry" />
        </mxCell>
        <mxCell id="61pDMChajNqByRGVgFLa-7" value="Оставить заявку тренеру" style="ellipse;whiteSpace=wrap;html=1;" vertex="1" parent="1">
          <mxGeometry x="155" y="420" width="140" height="50" as="geometry" />
        </mxCell>
        <mxCell id="61pDMChajNqByRGVgFLa-39" style="rounded=0;orthogonalLoop=1;jettySize=auto;html=1;exitX=0;exitY=0.5;exitDx=0;exitDy=0;entryX=1;entryY=0.5;entryDx=0;entryDy=0;dashed=1;" edge="1" parent="1" source="61pDMChajNqByRGVgFLa-8" target="61pDMChajNqByRGVgFLa-7">
          <mxGeometry relative="1" as="geometry" />
        </mxCell>
        <mxCell id="61pDMChajNqByRGVgFLa-8" value="Посмотреть список тренеров" style="ellipse;whiteSpace=wrap;html=1;" vertex="1" parent="1">
          <mxGeometry x="330" y="415" width="140" height="60" as="geometry" />
        </mxCell>
        <mxCell id="61pDMChajNqByRGVgFLa-55" style="rounded=0;orthogonalLoop=1;jettySize=auto;html=1;exitX=0.5;exitY=0.5;exitDx=0;exitDy=0;exitPerimeter=0;entryX=0;entryY=0.5;entryDx=0;entryDy=0;endArrow=none;endFill=0;" edge="1" parent="1" source="61pDMChajNqByRGVgFLa-10" target="61pDMChajNqByRGVgFLa-51">
          <mxGeometry relative="1" as="geometry" />
        </mxCell>
        <mxCell id="61pDMChajNqByRGVgFLa-56" style="rounded=0;orthogonalLoop=1;jettySize=auto;html=1;exitX=0.5;exitY=0.5;exitDx=0;exitDy=0;exitPerimeter=0;endArrow=none;endFill=0;" edge="1" parent="1" source="61pDMChajNqByRGVgFLa-10" target="61pDMChajNqByRGVgFLa-52">
          <mxGeometry relative="1" as="geometry" />
        </mxCell>
        <mxCell id="61pDMChajNqByRGVgFLa-66" style="rounded=0;orthogonalLoop=1;jettySize=auto;html=1;endArrow=block;endFill=0;" edge="1" parent="1">
          <mxGeometry relative="1" as="geometry">
            <mxPoint x="60" y="590" as="targetPoint" />
            <mxPoint x="60" y="730" as="sourcePoint" />
          </mxGeometry>
        </mxCell>
        <mxCell id="61pDMChajNqByRGVgFLa-10" value="Не авторизированный &lt;br&gt;клиент" style="shape=umlActor;verticalLabelPosition=bottom;verticalAlign=top;html=1;outlineConnect=0;" vertex="1" parent="1">
          <mxGeometry x="50" y="742.5" width="30" height="60" as="geometry" />
        </mxCell>
        <mxCell id="61pDMChajNqByRGVgFLa-12" value="Посмотреть список своих заявок с результатами" style="ellipse;whiteSpace=wrap;html=1;" vertex="1" parent="1">
          <mxGeometry x="160" y="480" width="140" height="75" as="geometry" />
        </mxCell>
        <mxCell id="61pDMChajNqByRGVgFLa-24" value="Посмотреть план тренировок" style="ellipse;whiteSpace=wrap;html=1;" vertex="1" parent="1">
          <mxGeometry x="160" y="560" width="140" height="75" as="geometry" />
        </mxCell>
        <mxCell id="61pDMChajNqByRGVgFLa-36" style="rounded=0;orthogonalLoop=1;jettySize=auto;html=1;exitX=1;exitY=0.5;exitDx=0;exitDy=0;dashed=1;" edge="1" parent="1" source="61pDMChajNqByRGVgFLa-25" target="61pDMChajNqByRGVgFLa-34">
          <mxGeometry relative="1" as="geometry" />
        </mxCell>
        <mxCell id="61pDMChajNqByRGVgFLa-25" value="Посмотреть упражнение на сегодня" style="ellipse;whiteSpace=wrap;html=1;" vertex="1" parent="1">
          <mxGeometry x="165" y="650" width="130" height="75" as="geometry" />
        </mxCell>
        <mxCell id="61pDMChajNqByRGVgFLa-26" value="Просмотр списка тренеров и их курсов" style="ellipse;whiteSpace=wrap;html=1;" vertex="1" parent="1">
          <mxGeometry x="530" y="452.5" width="134" height="60" as="geometry" />
        </mxCell>
        <mxCell id="61pDMChajNqByRGVgFLa-28" value="Просмотр списка постоянных клиентов" style="ellipse;whiteSpace=wrap;html=1;" vertex="1" parent="1">
          <mxGeometry x="510" y="521.29" width="120" height="70" as="geometry" />
        </mxCell>
        <mxCell id="61pDMChajNqByRGVgFLa-34" value="Указать пульс" style="ellipse;whiteSpace=wrap;html=1;" vertex="1" parent="1">
          <mxGeometry x="320" y="622.5" width="140" height="50" as="geometry" />
        </mxCell>
        <mxCell id="61pDMChajNqByRGVgFLa-37" value="include" style="text;align=center;fontStyle=1;verticalAlign=middle;spacingLeft=3;spacingRight=3;strokeColor=none;rotatable=0;points=[[0,0.5],[1,0.5]];portConstraint=eastwest;html=1;" vertex="1" parent="1">
          <mxGeometry x="280" y="660" width="80" height="26" as="geometry" />
        </mxCell>
        <mxCell id="61pDMChajNqByRGVgFLa-38" value="extend" style="text;align=center;fontStyle=1;verticalAlign=middle;spacingLeft=3;spacingRight=3;strokeColor=none;rotatable=0;points=[[0,0.5],[1,0.5]];portConstraint=eastwest;html=1;" vertex="1" parent="1">
          <mxGeometry x="270" y="415" width="80" height="26" as="geometry" />
        </mxCell>
        <mxCell id="61pDMChajNqByRGVgFLa-43" style="rounded=0;orthogonalLoop=1;jettySize=auto;html=1;dashed=1;" edge="1" parent="1" source="61pDMChajNqByRGVgFLa-40" target="61pDMChajNqByRGVgFLa-12">
          <mxGeometry relative="1" as="geometry" />
        </mxCell>
        <mxCell id="61pDMChajNqByRGVgFLa-40" value="Просмотр результатов" style="ellipse;whiteSpace=wrap;html=1;" vertex="1" parent="1">
          <mxGeometry x="370" y="484" width="110" height="60" as="geometry" />
        </mxCell>
        <mxCell id="61pDMChajNqByRGVgFLa-41" value="Просмотр колличество дней ожидания" style="ellipse;whiteSpace=wrap;html=1;" vertex="1" parent="1">
          <mxGeometry x="340" y="555" width="110" height="60" as="geometry" />
        </mxCell>
        <mxCell id="61pDMChajNqByRGVgFLa-42" style="rounded=0;orthogonalLoop=1;jettySize=auto;html=1;entryX=0.979;entryY=0.613;entryDx=0;entryDy=0;entryPerimeter=0;dashed=1;" edge="1" parent="1" source="61pDMChajNqByRGVgFLa-41" target="61pDMChajNqByRGVgFLa-12">
          <mxGeometry relative="1" as="geometry" />
        </mxCell>
        <mxCell id="61pDMChajNqByRGVgFLa-44" value="extend" style="text;align=center;fontStyle=1;verticalAlign=middle;spacingLeft=3;spacingRight=3;strokeColor=none;rotatable=0;points=[[0,0.5],[1,0.5]];portConstraint=eastwest;html=1;" vertex="1" parent="1">
          <mxGeometry x="310" y="490" width="80" height="26" as="geometry" />
        </mxCell>
        <mxCell id="61pDMChajNqByRGVgFLa-45" value="extend" style="text;align=center;fontStyle=1;verticalAlign=middle;spacingLeft=3;spacingRight=3;strokeColor=none;rotatable=0;points=[[0,0.5],[1,0.5]];portConstraint=eastwest;html=1;" vertex="1" parent="1">
          <mxGeometry x="310" y="529" width="80" height="26" as="geometry" />
        </mxCell>
        <mxCell id="61pDMChajNqByRGVgFLa-48" value="include" style="text;align=center;fontStyle=1;verticalAlign=middle;spacingLeft=3;spacingRight=3;strokeColor=none;rotatable=0;points=[[0,0.5],[1,0.5]];portConstraint=eastwest;html=1;" vertex="1" parent="1">
          <mxGeometry x="630" y="532.5" width="80" height="26" as="geometry" />
        </mxCell>
        <mxCell id="61pDMChajNqByRGVgFLa-50" value="include" style="text;align=center;fontStyle=1;verticalAlign=middle;spacingLeft=3;spacingRight=3;strokeColor=none;rotatable=0;points=[[0,0.5],[1,0.5]];portConstraint=eastwest;html=1;" vertex="1" parent="1">
          <mxGeometry x="640" y="452.5" width="80" height="26" as="geometry" />
        </mxCell>
        <mxCell id="61pDMChajNqByRGVgFLa-51" value="Зарегестироваться" style="ellipse;whiteSpace=wrap;html=1;" vertex="1" parent="1">
          <mxGeometry x="180" y="750" width="130" height="45" as="geometry" />
        </mxCell>
        <mxCell id="61pDMChajNqByRGVgFLa-52" value="Авторизироваться" style="ellipse;whiteSpace=wrap;html=1;" vertex="1" parent="1">
          <mxGeometry x="180" y="810" width="130" height="40" as="geometry" />
        </mxCell>
        <mxCell id="61pDMChajNqByRGVgFLa-57" style="rounded=0;orthogonalLoop=1;jettySize=auto;html=1;exitX=0.5;exitY=0.5;exitDx=0;exitDy=0;exitPerimeter=0;entryX=0.064;entryY=0.76;entryDx=0;entryDy=0;entryPerimeter=0;endArrow=none;endFill=0;" edge="1" parent="1" source="61pDMChajNqByRGVgFLa-5" target="61pDMChajNqByRGVgFLa-7">
          <mxGeometry relative="1" as="geometry" />
        </mxCell>
        <mxCell id="61pDMChajNqByRGVgFLa-58" style="rounded=0;orthogonalLoop=1;jettySize=auto;html=1;exitX=0.5;exitY=0.5;exitDx=0;exitDy=0;exitPerimeter=0;entryX=0;entryY=0.667;entryDx=0;entryDy=0;entryPerimeter=0;endArrow=none;endFill=0;" edge="1" parent="1" source="61pDMChajNqByRGVgFLa-5" target="61pDMChajNqByRGVgFLa-12">
          <mxGeometry relative="1" as="geometry" />
        </mxCell>
        <mxCell id="61pDMChajNqByRGVgFLa-61" style="rounded=0;orthogonalLoop=1;jettySize=auto;html=1;exitX=0.5;exitY=0.5;exitDx=0;exitDy=0;exitPerimeter=0;entryX=1;entryY=0.5;entryDx=0;entryDy=0;endArrow=none;endFill=0;" edge="1" parent="1" source="61pDMChajNqByRGVgFLa-2" target="61pDMChajNqByRGVgFLa-1">
          <mxGeometry relative="1" as="geometry" />
        </mxCell>
        <mxCell id="61pDMChajNqByRGVgFLa-63" style="rounded=0;orthogonalLoop=1;jettySize=auto;html=1;exitX=0.5;exitY=0.5;exitDx=0;exitDy=0;exitPerimeter=0;entryX=1;entryY=0.5;entryDx=0;entryDy=0;endArrow=none;endFill=0;" edge="1" parent="1" source="61pDMChajNqByRGVgFLa-2" target="61pDMChajNqByRGVgFLa-4">
          <mxGeometry relative="1" as="geometry" />
        </mxCell>
        <mxCell id="61pDMChajNqByRGVgFLa-82" style="rounded=0;orthogonalLoop=1;jettySize=auto;html=1;exitX=0;exitY=0.5;exitDx=0;exitDy=0;dashed=1;startArrow=classic;startFill=1;endArrow=none;endFill=0;" edge="1" parent="1" source="61pDMChajNqByRGVgFLa-67" target="61pDMChajNqByRGVgFLa-81">
          <mxGeometry relative="1" as="geometry" />
        </mxCell>
        <mxCell id="61pDMChajNqByRGVgFLa-67" value="Посмотреть список клиентов" style="ellipse;whiteSpace=wrap;html=1;" vertex="1" parent="1">
          <mxGeometry x="700" y="730" width="120" height="50" as="geometry" />
        </mxCell>
        <mxCell id="61pDMChajNqByRGVgFLa-69" value="Тренер" style="shape=umlActor;verticalLabelPosition=bottom;verticalAlign=top;html=1;outlineConnect=0;" vertex="1" parent="1">
          <mxGeometry x="940" y="700" width="30" height="60" as="geometry" />
        </mxCell>
        <mxCell id="61pDMChajNqByRGVgFLa-106" style="rounded=0;orthogonalLoop=1;jettySize=auto;html=1;exitX=0.5;exitY=1;exitDx=0;exitDy=0;entryX=0.5;entryY=0;entryDx=0;entryDy=0;dashed=1;" edge="1" parent="1" source="61pDMChajNqByRGVgFLa-73" target="61pDMChajNqByRGVgFLa-105">
          <mxGeometry relative="1" as="geometry" />
        </mxCell>
        <mxCell id="61pDMChajNqByRGVgFLa-73" value="Просмотр новых заявок&lt;div&gt;&amp;nbsp;от клиентов&lt;/div&gt;" style="ellipse;whiteSpace=wrap;html=1;" vertex="1" parent="1">
          <mxGeometry x="700" y="860" width="165" height="50" as="geometry" />
        </mxCell>
        <mxCell id="61pDMChajNqByRGVgFLa-76" style="rounded=0;orthogonalLoop=1;jettySize=auto;html=1;exitX=0.5;exitY=0.5;exitDx=0;exitDy=0;exitPerimeter=0;entryX=1;entryY=0.5;entryDx=0;entryDy=0;endArrow=none;endFill=0;" edge="1" parent="1" source="61pDMChajNqByRGVgFLa-69" target="61pDMChajNqByRGVgFLa-67">
          <mxGeometry relative="1" as="geometry" />
        </mxCell>
        <mxCell id="61pDMChajNqByRGVgFLa-77" style="rounded=0;orthogonalLoop=1;jettySize=auto;html=1;exitX=0.5;exitY=0.5;exitDx=0;exitDy=0;exitPerimeter=0;entryX=1;entryY=0.5;entryDx=0;entryDy=0;endArrow=none;endFill=0;" edge="1" parent="1" source="61pDMChajNqByRGVgFLa-69" target="61pDMChajNqByRGVgFLa-73">
          <mxGeometry relative="1" as="geometry" />
        </mxCell>
        <mxCell id="61pDMChajNqByRGVgFLa-78" value="Процент выполнения всего цикла тренировок" style="ellipse;whiteSpace=wrap;html=1;" vertex="1" parent="1">
          <mxGeometry x="480" y="602.5" width="120" height="70" as="geometry" />
        </mxCell>
        <mxCell id="61pDMChajNqByRGVgFLa-79" value="процент выполненных упражнений" style="ellipse;whiteSpace=wrap;html=1;" vertex="1" parent="1">
          <mxGeometry x="335" y="692" width="120" height="70" as="geometry" />
        </mxCell>
        <mxCell id="61pDMChajNqByRGVgFLa-80" value="Средний показатель пульса" style="ellipse;whiteSpace=wrap;html=1;" vertex="1" parent="1">
          <mxGeometry x="420" y="760" width="130" height="56" as="geometry" />
        </mxCell>
        <mxCell id="61pDMChajNqByRGVgFLa-86" style="rounded=0;orthogonalLoop=1;jettySize=auto;html=1;dashed=1;" edge="1" parent="1" source="61pDMChajNqByRGVgFLa-81" target="61pDMChajNqByRGVgFLa-79">
          <mxGeometry relative="1" as="geometry" />
        </mxCell>
        <mxCell id="61pDMChajNqByRGVgFLa-81" value="Посмотреть показатели &lt;br&gt;клиента" style="ellipse;whiteSpace=wrap;html=1;" vertex="1" parent="1">
          <mxGeometry x="570" y="706" width="80" height="70" as="geometry" />
        </mxCell>
        <mxCell id="61pDMChajNqByRGVgFLa-84" value="extend" style="text;align=center;fontStyle=1;verticalAlign=middle;spacingLeft=3;spacingRight=3;strokeColor=none;rotatable=0;points=[[0,0.5],[1,0.5]];portConstraint=eastwest;html=1;" vertex="1" parent="1">
          <mxGeometry x="640" y="725" width="80" height="26" as="geometry" />
        </mxCell>
        <mxCell id="61pDMChajNqByRGVgFLa-88" value="include" style="text;align=center;fontStyle=1;verticalAlign=middle;spacingLeft=3;spacingRight=3;strokeColor=none;rotatable=0;points=[[0,0.5],[1,0.5]];portConstraint=eastwest;html=1;" vertex="1" parent="1">
          <mxGeometry x="560" y="674.5" width="80" height="26" as="geometry" />
        </mxCell>
        <mxCell id="61pDMChajNqByRGVgFLa-89" value="include" style="text;align=center;fontStyle=1;verticalAlign=middle;spacingLeft=3;spacingRight=3;strokeColor=none;rotatable=0;points=[[0,0.5],[1,0.5]];portConstraint=eastwest;html=1;" vertex="1" parent="1">
          <mxGeometry x="470" y="714" width="80" height="26" as="geometry" />
        </mxCell>
        <mxCell id="61pDMChajNqByRGVgFLa-90" value="include" style="text;align=center;fontStyle=1;verticalAlign=middle;spacingLeft=3;spacingRight=3;strokeColor=none;rotatable=0;points=[[0,0.5],[1,0.5]];portConstraint=eastwest;html=1;" vertex="1" parent="1">
          <mxGeometry x="549" y="780" width="80" height="26" as="geometry" />
        </mxCell>
        <mxCell id="61pDMChajNqByRGVgFLa-93" style="rounded=0;orthogonalLoop=1;jettySize=auto;html=1;entryX=0;entryY=0.5;entryDx=0;entryDy=0;dashed=1;" edge="1" parent="1" source="61pDMChajNqByRGVgFLa-91" target="61pDMChajNqByRGVgFLa-73">
          <mxGeometry relative="1" as="geometry" />
        </mxCell>
        <mxCell id="61pDMChajNqByRGVgFLa-98" style="rounded=0;orthogonalLoop=1;jettySize=auto;html=1;entryX=1;entryY=0.5;entryDx=0;entryDy=0;dashed=1;" edge="1" parent="1" source="61pDMChajNqByRGVgFLa-91" target="61pDMChajNqByRGVgFLa-95">
          <mxGeometry relative="1" as="geometry" />
        </mxCell>
        <mxCell id="61pDMChajNqByRGVgFLa-91" value="Отклонить&lt;br&gt;заявку" style="ellipse;whiteSpace=wrap;html=1;" vertex="1" parent="1">
          <mxGeometry x="540" y="850" width="110" height="40" as="geometry" />
        </mxCell>
        <mxCell id="61pDMChajNqByRGVgFLa-94" style="rounded=0;orthogonalLoop=1;jettySize=auto;html=1;entryX=0;entryY=1;entryDx=0;entryDy=0;dashed=1;" edge="1" parent="1" source="61pDMChajNqByRGVgFLa-92" target="61pDMChajNqByRGVgFLa-73">
          <mxGeometry relative="1" as="geometry" />
        </mxCell>
        <mxCell id="61pDMChajNqByRGVgFLa-99" style="rounded=0;orthogonalLoop=1;jettySize=auto;html=1;exitX=0;exitY=0.5;exitDx=0;exitDy=0;dashed=1;" edge="1" parent="1" source="61pDMChajNqByRGVgFLa-92" target="61pDMChajNqByRGVgFLa-96">
          <mxGeometry relative="1" as="geometry" />
        </mxCell>
        <mxCell id="61pDMChajNqByRGVgFLa-92" value="Принять&lt;br&gt;заявку" style="ellipse;whiteSpace=wrap;html=1;" vertex="1" parent="1">
          <mxGeometry x="534" y="910" width="110" height="40" as="geometry" />
        </mxCell>
        <mxCell id="61pDMChajNqByRGVgFLa-95" value="Указать причину отклонения заявки" style="ellipse;whiteSpace=wrap;html=1;" vertex="1" parent="1">
          <mxGeometry x="354" y="830" width="136" height="50" as="geometry" />
        </mxCell>
        <mxCell id="61pDMChajNqByRGVgFLa-96" value="Выставить план индивидуальных занятий для&lt;span style=&quot;background-color: initial;&quot;&gt;&amp;nbsp;клиента&lt;/span&gt;" style="ellipse;whiteSpace=wrap;html=1;" vertex="1" parent="1">
          <mxGeometry x="320" y="897.5" width="166" height="65" as="geometry" />
        </mxCell>
        <mxCell id="61pDMChajNqByRGVgFLa-100" value="include" style="text;align=center;fontStyle=1;verticalAlign=middle;spacingLeft=3;spacingRight=3;strokeColor=none;rotatable=0;points=[[0,0.5],[1,0.5]];portConstraint=eastwest;html=1;" vertex="1" parent="1">
          <mxGeometry x="480" y="824" width="80" height="26" as="geometry" />
        </mxCell>
        <mxCell id="61pDMChajNqByRGVgFLa-101" value="include" style="text;align=center;fontStyle=1;verticalAlign=middle;spacingLeft=3;spacingRight=3;strokeColor=none;rotatable=0;points=[[0,0.5],[1,0.5]];portConstraint=eastwest;html=1;" vertex="1" parent="1">
          <mxGeometry x="470" y="897.5" width="80" height="26" as="geometry" />
        </mxCell>
        <mxCell id="61pDMChajNqByRGVgFLa-102" value="extend" style="text;align=center;fontStyle=1;verticalAlign=middle;spacingLeft=3;spacingRight=3;strokeColor=none;rotatable=0;points=[[0,0.5],[1,0.5]];portConstraint=eastwest;html=1;" vertex="1" parent="1">
          <mxGeometry x="630" y="860" width="80" height="26" as="geometry" />
        </mxCell>
        <mxCell id="61pDMChajNqByRGVgFLa-103" value="extend" style="text;align=center;fontStyle=1;verticalAlign=middle;spacingLeft=3;spacingRight=3;strokeColor=none;rotatable=0;points=[[0,0.5],[1,0.5]];portConstraint=eastwest;html=1;" vertex="1" parent="1">
          <mxGeometry x="640" y="910" width="80" height="26" as="geometry" />
        </mxCell>
        <mxCell id="61pDMChajNqByRGVgFLa-104" style="rounded=0;orthogonalLoop=1;jettySize=auto;html=1;entryX=0.954;entryY=0.679;entryDx=0;entryDy=0;entryPerimeter=0;dashed=1;" edge="1" parent="1" source="61pDMChajNqByRGVgFLa-81" target="61pDMChajNqByRGVgFLa-80">
          <mxGeometry relative="1" as="geometry" />
        </mxCell>
        <mxCell id="61pDMChajNqByRGVgFLa-105" value="Посмотреть колличество новых заявок" style="ellipse;whiteSpace=wrap;html=1;" vertex="1" parent="1">
          <mxGeometry x="629" y="780" width="110" height="60" as="geometry" />
        </mxCell>
        <mxCell id="61pDMChajNqByRGVgFLa-107" value="include" style="text;align=center;fontStyle=1;verticalAlign=middle;spacingLeft=3;spacingRight=3;strokeColor=none;rotatable=0;points=[[0,0.5],[1,0.5]];portConstraint=eastwest;html=1;" vertex="1" parent="1">
          <mxGeometry x="710" y="834" width="80" height="26" as="geometry" />
        </mxCell>
        <mxCell id="61pDMChajNqByRGVgFLa-108" style="rounded=0;orthogonalLoop=1;jettySize=auto;html=1;entryX=0.725;entryY=0.893;entryDx=0;entryDy=0;entryPerimeter=0;dashed=1;" edge="1" parent="1" source="61pDMChajNqByRGVgFLa-81" target="61pDMChajNqByRGVgFLa-78">
          <mxGeometry relative="1" as="geometry" />
        </mxCell>
        <mxCell id="61pDMChajNqByRGVgFLa-110" value="Диаграмма использования для ИС фитнес-центра" style="shape=umlFrame;whiteSpace=wrap;html=1;pointerEvents=0;recursiveResize=0;container=1;collapsible=0;width=350;height=30;" vertex="1" parent="1">
          <mxGeometry x="110" y="370" width="780" height="600" as="geometry" />
        </mxCell>
      </root>
    </mxGraphModel>
  </diagram>
</mxfile>
